<svg width="56" height="57" viewBox="0 0 56 57" fill="none" xmlns="http://www.w3.org/2000/svg">
<g clip-path="url(#clip0_1_2555)">
<mask id="mask0_1_2555" style="mask-type:luminance" maskUnits="userSpaceOnUse" x="0" y="0" width="56" height="57">
<path d="M55.6318 0.375H0.368652V56.625H55.6318V0.375Z" fill="white"/>
</mask>
<g mask="url(#mask0_1_2555)">
<g filter="url(#filter0_i_1_2555)">
<path d="M6.509 0.375C3.13181 0.375 0.368652 3.1875 0.368652 6.625V50.375C0.368652 53.8125 3.13181 56.625 6.509 56.625H49.4915C52.8687 56.625 55.6318 53.8125 55.6318 50.375V6.625C55.6318 3.1875 52.8687 0.375 49.4915 0.375H6.509ZM18.5678 16H23.371L31.5621 41H25.9495L24.5583 35.8853H17.3865L15.9954 41H10.4307L18.5678 16ZM20.9604 22.7627L18.5319 31.6739H23.395L20.9604 22.7627ZM39.4654 24.1054C44.1597 24.1054 45.5638 28.7521 45.5638 31.4053V33.7673H36.4972C36.6446 34.8642 37.0857 35.7416 37.8164 36.404C38.5471 37.0634 39.4723 37.4741 40.5867 37.3928C42.2354 37.271 44.1367 36.2655 44.7722 35.6655V39.7976C43.7561 40.4038 41.6899 41 40.2929 41C37.8276 41 35.8229 40.2479 34.2725 38.7417C32.7252 37.2355 31.9399 35.2269 31.9399 32.7176V32.2842C31.9399 30.6029 32.8369 24.1054 39.4654 24.1054ZM39.0697 27.7737C37.6635 27.7737 36.4912 29.1592 36.4912 30.7216H41.4682C41.4651 29.2685 40.5403 27.7737 39.0697 27.7737Z" fill="#7EDD79"/>
</g>
</g>
</g>
<defs>
<filter id="filter0_i_1_2555" x="0.368652" y="0.375" width="55.2632" height="58.25" filterUnits="userSpaceOnUse" color-interpolation-filters="sRGB">
<feFlood flood-opacity="0" result="BackgroundImageFix"/>
<feBlend mode="normal" in="SourceGraphic" in2="BackgroundImageFix" result="shape"/>
<feColorMatrix in="SourceAlpha" type="matrix" values="0 0 0 0 0 0 0 0 0 0 0 0 0 0 0 0 0 0 127 0" result="hardAlpha"/>
<feOffset dy="2"/>
<feGaussianBlur stdDeviation="2.45"/>
<feComposite in2="hardAlpha" operator="arithmetic" k2="-1" k3="1"/>
<feColorMatrix type="matrix" values="0 0 0 0 0.117647 0 0 0 0 0.576471 0 0 0 0 0.454902 0 0 0 0.4 0"/>
<feBlend mode="normal" in2="shape" result="effect1_innerShadow_1_2555"/>
</filter>
<clipPath id="clip0_1_2555">
<rect width="56" height="57" fill="white"/>
</clipPath>
</defs>
</svg>
