<svg width="56" height="56" viewBox="0 0 56 56" fill="none" xmlns="http://www.w3.org/2000/svg">
<g clip-path="url(#clip0_1_2549)">
<g filter="url(#filter0_i_1_2549)">
<mask id="mask0_1_2549" style="mask-type:luminance" maskUnits="userSpaceOnUse" x="0" y="0" width="56" height="56">
<path d="M55.6318 0.368408H0.368652V55.6316H55.6318V0.368408Z" fill="white"/>
</mask>
<g mask="url(#mask0_1_2549)">
<path d="M6.509 0.368408C3.12701 0.368408 0.368652 3.12677 0.368652 6.50876V49.4912C0.368652 52.8732 3.12701 55.6316 6.509 55.6316H49.4915C52.8734 55.6316 55.6318 52.8732 55.6318 49.4912V6.50876C55.6318 3.12677 52.8734 0.368408 49.4915 0.368408H6.509ZM38.7458 14.1842C40.281 14.1842 41.5282 15.4314 41.5282 16.9665C41.5282 18.5016 40.281 19.7489 38.7458 19.7489C37.2108 19.7489 35.9635 18.5016 35.9635 16.9665C35.9635 15.4314 37.2108 14.1842 38.7458 14.1842ZM20.9005 15.4314H25.8895L34.1406 41.528H28.288L26.753 36.2511H19.7491L18.214 41.528H12.6494L20.9005 15.4314ZM36.2513 22.1475H41.5282V41.528H36.2513V22.1475ZM23.395 22.4353L20.9005 31.6458H25.8895L23.395 22.4353Z" fill="#7EDD79"/>
</g>
</g>
</g>
<defs>
<filter id="filter0_i_1_2549" x="0.368652" y="0.368408" width="55.2632" height="57.2632" filterUnits="userSpaceOnUse" color-interpolation-filters="sRGB">
<feFlood flood-opacity="0" result="BackgroundImageFix"/>
<feBlend mode="normal" in="SourceGraphic" in2="BackgroundImageFix" result="shape"/>
<feColorMatrix in="SourceAlpha" type="matrix" values="0 0 0 0 0 0 0 0 0 0 0 0 0 0 0 0 0 0 127 0" result="hardAlpha"/>
<feOffset dy="2"/>
<feGaussianBlur stdDeviation="2.45"/>
<feComposite in2="hardAlpha" operator="arithmetic" k2="-1" k3="1"/>
<feColorMatrix type="matrix" values="0 0 0 0 0.117647 0 0 0 0 0.576471 0 0 0 0 0.454902 0 0 0 0.4 0"/>
<feBlend mode="normal" in2="shape" result="effect1_innerShadow_1_2549"/>
</filter>
<clipPath id="clip0_1_2549">
<rect width="56" height="56" fill="white"/>
</clipPath>
</defs>
</svg>
