<svg width="55" height="56" viewBox="0 0 55 56" fill="none" xmlns="http://www.w3.org/2000/svg">
<g filter="url(#filter0_i_1_2545)">
<path d="M46.8994 0C51.3177 0 54.8994 3.58172 54.8994 8V47.6318C54.8993 52.05 51.3176 55.6318 46.8994 55.6318H8C3.5818 55.6318 0.000131818 52.05 0 47.6318V8C0 3.58172 3.58172 0 8 0H46.8994ZM27.5771 12.4355C26.7571 11.8213 25.3782 11.8242 24.4766 12.4385C23.5649 13.0592 23.4615 14.0883 24.2715 14.7383L24.2695 14.7393L29.4805 18.8721L13.5967 18.8877H13.5752C12.2619 18.8893 11 19.7302 10.75 20.793C10.4936 21.8735 11.3835 22.7705 12.75 22.7754V22.7783L20.7998 22.7617L6.43359 33.5146L6.37695 33.5557C5.02195 34.5664 4.58514 36.2501 5.43848 37.3145C6.30525 38.398 8.14674 38.3992 9.5166 37.3203L17.3564 31.0664C17.3532 31.0898 17.2402 31.9178 17.25 32.416C17.26 32.9263 17.4268 33.915 17.6768 34.6885C18.2165 36.3524 19.123 37.8811 20.332 39.168C21.6288 40.558 23.2111 41.6664 24.9766 42.4199C26.898 43.2458 28.9773 43.667 31.0771 43.6553C33.1765 43.6592 35.2533 43.2314 37.1719 42.4004C38.9361 41.6397 40.5173 40.5267 41.8135 39.1338C43.0206 37.8426 43.926 36.3111 44.4668 34.6455C44.9868 33.0318 45.1295 31.3248 44.8838 29.6504C44.6498 28.0463 44.0727 26.5078 43.1904 25.1348C42.373 23.8574 41.3273 22.7326 40.1035 21.8145H40.1064L27.6104 12.46L27.5771 12.4355ZM31.0713 22.7568C33.1646 22.7536 35.1637 23.4239 36.7354 24.667C37.5351 25.3023 38.1854 26.0543 38.6553 26.8877C39.1418 27.7419 39.4383 28.6868 39.5254 29.6602C39.6137 30.6577 39.4777 31.6625 39.127 32.6035C38.7526 33.5943 38.1625 34.495 37.4004 35.2451C35.7838 36.8506 33.5235 37.7613 31.0752 37.7646C28.6252 37.7711 26.3637 36.8669 24.7471 35.2646C23.9837 34.5174 23.3939 33.6184 23.0195 32.6289C22.6766 31.6981 22.5411 30.7066 22.6221 29.7207C22.7031 28.7347 22.9995 27.7769 23.4902 26.9111C23.9784 26.0553 24.631 25.2983 25.4121 24.6826C26.982 23.4349 28.9799 22.7602 31.0713 22.7568ZM31.2529 25.2451C29.9074 25.2359 28.6015 25.691 27.5664 26.5293C26.5799 27.3418 25.9263 28.4892 25.8496 29.7891C25.7747 31.1247 26.3264 32.3649 27.293 33.2861C28.3588 34.2777 29.7798 34.8237 31.2529 34.8096C32.725 34.8237 34.1453 34.2774 35.21 33.2861C36.1766 32.3648 36.7264 31.1245 36.6514 29.7871C36.5764 28.4889 35.925 27.3418 34.9385 26.5293C33.9718 25.733 32.6696 25.2451 31.2529 25.2451Z" fill="#7EDD79"/>
</g>
<defs>
<filter id="filter0_i_1_2545" x="0" y="0" width="54.8994" height="57.6318" filterUnits="userSpaceOnUse" color-interpolation-filters="sRGB">
<feFlood flood-opacity="0" result="BackgroundImageFix"/>
<feBlend mode="normal" in="SourceGraphic" in2="BackgroundImageFix" result="shape"/>
<feColorMatrix in="SourceAlpha" type="matrix" values="0 0 0 0 0 0 0 0 0 0 0 0 0 0 0 0 0 0 127 0" result="hardAlpha"/>
<feOffset dy="2"/>
<feGaussianBlur stdDeviation="2.45"/>
<feComposite in2="hardAlpha" operator="arithmetic" k2="-1" k3="1"/>
<feColorMatrix type="matrix" values="0 0 0 0 0.117647 0 0 0 0 0.576471 0 0 0 0 0.454902 0 0 0 0.4 0"/>
<feBlend mode="normal" in2="shape" result="effect1_innerShadow_1_2545"/>
</filter>
</defs>
</svg>
