<svg width="72" height="53" viewBox="0 0 72 53" fill="none" xmlns="http://www.w3.org/2000/svg">
<g filter="url(#filter0_i_1_2571)">
<path d="M61.7683 5.87526C55.5628 0.885431 45.7461 0.0412994 45.3289 0.00544819C44.6738 -0.0499582 44.0513 0.32159 43.7841 0.921282C43.7645 0.960393 43.5494 1.45253 43.3115 2.21844C47.4148 2.90939 52.4568 4.30433 57.0197 7.13657C57.7497 7.5896 57.9746 8.55106 57.5216 9.28438C57.2282 9.76023 56.7166 10.021 56.1951 10.021C55.9148 10.021 55.6312 9.946 55.3738 9.7863C47.5321 4.92358 37.735 4.67914 35.8512 4.67914C33.9674 4.67914 24.1669 4.92358 16.3318 9.7863C15.5985 10.2426 14.6403 10.0144 14.184 9.28438C13.7277 8.55106 13.9559 7.59286 14.6859 7.13657C19.2488 4.30759 24.2875 2.90939 28.3941 2.21844C28.1529 1.44927 27.9378 0.960393 27.9215 0.921282C27.651 0.32159 27.0318 -0.0564768 26.3734 0.00870715C25.9595 0.0412991 16.1428 0.885431 9.85255 5.94696C6.56728 8.98128 0 26.7374 0 42.0882C0 42.3587 0.0717022 42.626 0.205329 42.8606C4.73887 50.8229 17.1043 52.9087 19.9235 53C19.9398 53 19.9561 53 19.9724 53C20.471 53 20.9403 52.7621 21.2337 52.3579L24.0855 48.4404C16.397 46.4523 12.4697 43.079 12.2415 42.8802C11.5962 42.3098 11.5343 41.3256 12.1047 40.6802C12.675 40.0349 13.656 39.973 14.3014 40.5401C14.3959 40.6248 21.628 46.7619 35.8512 46.7619C50.1004 46.7619 57.3325 40.5988 57.4042 40.5368C58.0496 39.9762 59.0338 40.0349 59.6009 40.6835C60.168 41.3288 60.1061 42.3098 59.4641 42.8769C59.2359 43.079 55.3086 46.449 47.6201 48.4371L50.4719 52.3547C50.7653 52.7588 51.2346 52.9967 51.7332 52.9967C51.7495 52.9967 51.7658 52.9967 51.7821 52.9967C54.6013 52.9087 66.9667 50.8229 71.5003 42.8574C71.6306 42.6227 71.7023 42.3587 71.7023 42.0882C71.7023 26.7374 65.135 8.98128 61.7683 5.87526ZM25.7183 35.8534C22.7068 35.8534 20.2624 33.0602 20.2624 29.6185C20.2624 26.1768 22.7036 23.3837 25.7183 23.3837C28.7331 23.3837 31.1742 26.1768 31.1742 29.6185C31.1742 33.0602 28.7331 35.8534 25.7183 35.8534ZM45.984 35.8534C42.9725 35.8534 40.5281 33.0602 40.5281 29.6185C40.5281 26.1768 42.9693 23.3837 45.984 23.3837C48.9955 23.3837 51.4399 26.1768 51.4399 29.6185C51.4399 33.0602 48.9955 35.8534 45.984 35.8534Z" fill="#7EDD79"/>
</g>
<defs>
<filter id="filter0_i_1_2571" x="0" y="0" width="71.7021" height="55" filterUnits="userSpaceOnUse" color-interpolation-filters="sRGB">
<feFlood flood-opacity="0" result="BackgroundImageFix"/>
<feBlend mode="normal" in="SourceGraphic" in2="BackgroundImageFix" result="shape"/>
<feColorMatrix in="SourceAlpha" type="matrix" values="0 0 0 0 0 0 0 0 0 0 0 0 0 0 0 0 0 0 127 0" result="hardAlpha"/>
<feOffset dy="2"/>
<feGaussianBlur stdDeviation="2.45"/>
<feComposite in2="hardAlpha" operator="arithmetic" k2="-1" k3="1"/>
<feColorMatrix type="matrix" values="0 0 0 0 0.117647 0 0 0 0 0.576471 0 0 0 0 0.454902 0 0 0 0.4 0"/>
<feBlend mode="normal" in2="shape" result="effect1_innerShadow_1_2571"/>
</filter>
</defs>
</svg>
