<svg width="391" height="159" viewBox="0 0 391 159" fill="none" xmlns="http://www.w3.org/2000/svg">
<g filter="url(#filter0_i_1_2530)">
<path d="M73.2422 73.2422V109.863H61.0352V122.07H48.8281V134.277H85.4492V158.691H24.4141V146.484H12.207V134.277H0V73.2422H12.207V61.0352H61.0352V73.2422H73.2422ZM36.6211 109.863V97.6562H48.8281V85.4492H24.4141V109.863H36.6211ZM134.277 48.8281V73.2422H146.484V61.0352H170.898V85.4492H158.691V97.6562H146.484V122.07H158.691V146.484H134.277V134.277H122.07V158.691H97.6562V85.4492H109.863V36.6211H122.07V0H146.484V48.8281H134.277ZM280.762 85.3271V146.362H268.555V158.569H195.312V146.362H183.105V97.5342H195.312V85.3271H207.52V73.1201H268.555V85.3271H280.762ZM219.727 109.741H207.52V134.155H256.348V97.5342H219.727V109.741ZM378.418 48.7061V60.9131H390.625V121.948H378.418V134.155H366.211V146.362H354.004V158.569H305.176V146.362H292.969V73.1201H305.176V60.9131H317.383V48.7061H329.59V36.499H366.211V48.7061H378.418ZM317.383 85.3271V134.155H341.797V121.948H354.004V109.741H366.211V73.1201H329.59V85.3271H317.383Z" fill="#7EDD79"/>
</g>
<defs>
<filter id="filter0_i_1_2530" x="0" y="0" width="390.625" height="162.691" filterUnits="userSpaceOnUse" color-interpolation-filters="sRGB">
<feFlood flood-opacity="0" result="BackgroundImageFix"/>
<feBlend mode="normal" in="SourceGraphic" in2="BackgroundImageFix" result="shape"/>
<feColorMatrix in="SourceAlpha" type="matrix" values="0 0 0 0 0 0 0 0 0 0 0 0 0 0 0 0 0 0 127 0" result="hardAlpha"/>
<feOffset dy="4"/>
<feGaussianBlur stdDeviation="2"/>
<feComposite in2="hardAlpha" operator="arithmetic" k2="-1" k3="1"/>
<feColorMatrix type="matrix" values="0 0 0 0 0.0366124 0 0 0 0 0.423077 0 0 0 0 0.184719 0 0 0 0.45 0"/>
<feBlend mode="normal" in2="shape" result="effect1_innerShadow_1_2530"/>
</filter>
</defs>
</svg>
