<svg width="56" height="56" viewBox="0 0 56 56" fill="none" xmlns="http://www.w3.org/2000/svg">
<g clip-path="url(#clip0_1_2541)">
<g filter="url(#filter0_i_1_2541)">
<path d="M49.3684 0C52.624 5.22187e-07 55.2632 2.63916 55.2632 5.89474V50.1053C55.2632 53.3609 52.624 56 49.3684 56H5.89474C2.63916 56 0 53.3609 0 50.1053V5.89474C7.36842e-07 2.63916 2.63916 7.71415e-08 5.89474 0H49.3684ZM20.9755 35.4325C17.9456 35.4325 15.4737 37.9013 15.4737 40.9271C15.4739 43.9527 17.9458 46.4211 20.9755 46.4211C24.0053 46.421 26.4772 43.9527 26.4774 40.9271V35.4325H20.9755ZM20.9755 22.8745C17.9456 22.8745 15.4737 25.3427 15.4737 28.3684C15.4737 31.3942 17.9456 33.8624 20.9755 33.8624H26.4774V22.8745H20.9755ZM33.5508 22.8745C32.0917 22.8745 30.6925 23.4532 29.6608 24.4834C28.629 25.5138 28.0489 26.9112 28.0489 28.3684C28.0489 29.8256 28.629 31.223 29.6608 32.2534C30.6925 33.2837 32.0917 33.8623 33.5508 33.8624C35.0099 33.8624 36.4097 33.2837 37.4415 32.2534C38.4732 31.223 39.0526 29.8255 39.0526 28.3684C39.0526 26.9113 38.4732 25.5138 37.4415 24.4834C36.4097 23.4531 35.0099 22.8745 33.5508 22.8745ZM20.9755 10.3158C17.9458 10.3158 15.4739 12.7841 15.4737 15.8098C15.4737 18.8355 17.9456 21.3044 20.9755 21.3044H26.4774V10.3158H20.9755ZM28.0489 10.3158V21.3044H33.5508C36.5807 21.3044 39.0526 18.8355 39.0526 15.8098C39.0524 12.7841 36.5805 10.3158 33.5508 10.3158H28.0489Z" fill="#7EDD79"/>
</g>
</g>
<defs>
<filter id="filter0_i_1_2541" x="0" y="0" width="55.2632" height="58" filterUnits="userSpaceOnUse" color-interpolation-filters="sRGB">
<feFlood flood-opacity="0" result="BackgroundImageFix"/>
<feBlend mode="normal" in="SourceGraphic" in2="BackgroundImageFix" result="shape"/>
<feColorMatrix in="SourceAlpha" type="matrix" values="0 0 0 0 0 0 0 0 0 0 0 0 0 0 0 0 0 0 127 0" result="hardAlpha"/>
<feOffset dy="2"/>
<feGaussianBlur stdDeviation="2.45"/>
<feComposite in2="hardAlpha" operator="arithmetic" k2="-1" k3="1"/>
<feColorMatrix type="matrix" values="0 0 0 0 0.117647 0 0 0 0 0.576471 0 0 0 0 0.454902 0 0 0 0.4 0"/>
<feBlend mode="normal" in2="shape" result="effect1_innerShadow_1_2541"/>
</filter>
<clipPath id="clip0_1_2541">
<rect width="56" height="56" fill="white"/>
</clipPath>
</defs>
</svg>
