<svg width="54" height="39" viewBox="0 0 54 39" fill="none" xmlns="http://www.w3.org/2000/svg">
<path d="M50.2171 21.927C50.2171 21.2898 49.719 20.9712 48.7227 20.9712H18.0454C17.2935 20.9712 16.49 21.1669 15.6347 21.5583C14.7794 21.9497 14.1074 22.4276 13.6187 22.9919L5.32904 32.9041C4.99069 33.341 4.82152 33.7051 4.82152 33.9963C4.82152 34.6335 5.31964 34.9521 6.3159 34.9521H36.9932C37.7451 34.9521 38.5533 34.7518 39.418 34.3513C40.2827 33.9508 40.95 33.4684 41.4199 32.9041L49.7096 22.9919C50.0479 22.5914 50.2171 22.2364 50.2171 21.927ZM18.0454 17.476H39.7V13.107C39.7 12.3789 39.4368 11.7599 38.9105 11.2502C38.3842 10.7405 37.7451 10.4856 36.9932 10.4856H20.7523C20.0004 10.4856 19.3613 10.2308 18.8349 9.72104C18.3086 9.21132 18.0454 8.59239 18.0454 7.86421V6.11661C18.0454 5.38844 17.7823 4.7695 17.256 4.25978C16.7296 3.75006 16.0905 3.49521 15.3386 3.49521H6.3159C5.56401 3.49521 4.9249 3.75006 4.39858 4.25978C3.87225 4.7695 3.60909 5.38844 3.60909 6.11661V29.4089L10.8273 20.8074C11.6544 19.8426 12.7446 19.0461 14.098 18.4181C15.4514 17.7901 16.7672 17.476 18.0454 17.476ZM53.8262 21.927C53.8262 23.0556 53.3938 24.1479 52.5292 25.2037L44.2113 35.1159C43.403 36.0807 42.3128 36.8772 40.9406 37.5052C39.5684 38.1332 38.2526 38.4473 36.9932 38.4473H6.3159C4.58654 38.4473 3.10157 37.8465 1.86094 36.6451C0.620305 35.4436 0 34.0055 0 32.3307V6.11661C0 4.44182 0.620305 3.0037 1.86094 1.80221C3.10157 0.600732 4.58654 0 6.3159 0H15.3386C17.068 0 18.553 0.600732 19.7936 1.80221C21.0342 3.0037 21.6545 4.44182 21.6545 6.11661V6.99041H36.9932C38.7225 6.99041 40.2075 7.59115 41.4481 8.79263C42.6888 9.99411 43.3091 11.4322 43.3091 13.107V17.476H48.7227C49.7378 17.476 50.6682 17.699 51.5141 18.145C52.36 18.591 52.9897 19.2327 53.4032 20.0701C53.6852 20.6527 53.8262 21.2716 53.8262 21.927Z" fill="#15BC55"/>
</svg>
