<svg width="64" height="48" viewBox="0 0 64 48" fill="none" xmlns="http://www.w3.org/2000/svg">
<g filter="url(#filter0_i_1_2574)">
<path d="M56 0H8C5.79166 0 3.90626 0.781242 2.34375 2.34375C0.781242 3.90626 0 5.79166 0 8V40C0 42.2083 0.781242 44.0937 2.34375 45.6562C3.90626 47.2188 5.79166 48 8 48H56C58.2083 48 60.0937 47.2188 61.6562 45.6562C63.2188 44.0937 64 42.2083 64 40V8C64 5.79166 63.2188 3.90626 61.6562 2.34375C60.0937 0.781242 58.2083 0 56 0ZM58 4L32 24L6 4H58ZM4 40V8L22 22L4.1875 41.125C4.14583 40.9583 4.10417 40.7812 4.0625 40.5938C4.02083 40.4062 4 40.2083 4 40ZM7.125 43.875L25.1875 24.6875L32 29.8125L38.5625 24.625L56.875 43.875C56.7917 43.9167 54.1667 43.9375 49 43.9375C43.8333 43.9375 38.1667 43.9375 32 43.9375C25.8333 43.9375 20.1667 43.9375 15 43.9375C9.83331 43.9375 7.20833 43.9167 7.125 43.875ZM60 40C60 40.2083 59.9792 40.4062 59.9375 40.5938C59.8958 40.7812 59.8542 40.9583 59.8125 41.125L42 22L60 8V40Z" fill="#7EDD79"/>
</g>
<defs>
<filter id="filter0_i_1_2574" x="0" y="0" width="64" height="50" filterUnits="userSpaceOnUse" color-interpolation-filters="sRGB">
<feFlood flood-opacity="0" result="BackgroundImageFix"/>
<feBlend mode="normal" in="SourceGraphic" in2="BackgroundImageFix" result="shape"/>
<feColorMatrix in="SourceAlpha" type="matrix" values="0 0 0 0 0 0 0 0 0 0 0 0 0 0 0 0 0 0 127 0" result="hardAlpha"/>
<feOffset dy="2"/>
<feGaussianBlur stdDeviation="2.45"/>
<feComposite in2="hardAlpha" operator="arithmetic" k2="-1" k3="1"/>
<feColorMatrix type="matrix" values="0 0 0 0 0.117647 0 0 0 0 0.576471 0 0 0 0 0.454902 0 0 0 0.4 0"/>
<feBlend mode="normal" in2="shape" result="effect1_innerShadow_1_2574"/>
</filter>
</defs>
</svg>
