<svg width="37" height="28" viewBox="0 0 37 28" fill="none" xmlns="http://www.w3.org/2000/svg">
<path d="M32.0833 0H4.58333C3.31814 0 2.23796 0.447587 1.34277 1.34277C0.447587 2.23796 0 3.31814 0 4.58333V22.9167C0 24.1819 0.447587 25.262 1.34277 26.1572C2.23796 27.0524 3.31814 27.5 4.58333 27.5H32.0833C33.3485 27.5 34.4287 27.0524 35.3239 26.1572C36.2191 25.262 36.6667 24.1819 36.6667 22.9167V4.58333C36.6667 3.31814 36.2191 2.23796 35.3239 1.34277C34.4287 0.447587 33.3485 0 32.0833 0ZM33.2292 2.29167L18.3333 13.75L3.4375 2.29167H33.2292ZM2.29167 22.9167V4.58333L12.6042 12.6042L2.39909 23.5612C2.37522 23.4657 2.35134 23.3643 2.32747 23.2568C2.3036 23.1494 2.29167 23.036 2.29167 22.9167ZM4.08203 25.1367L14.4303 14.1439L18.3333 17.0801L22.0931 14.1081L32.5846 25.1367C32.5369 25.1606 31.033 25.1725 28.0729 25.1725C25.1128 25.1725 21.8663 25.1725 18.3333 25.1725C14.8003 25.1725 11.5538 25.1725 8.59375 25.1725C5.63367 25.1725 4.12977 25.1606 4.08203 25.1367ZM34.375 22.9167C34.375 23.036 34.3631 23.1494 34.3392 23.2568C34.3153 23.3643 34.2914 23.4657 34.2676 23.5612L24.0625 12.6042L34.375 4.58333V22.9167Z" fill="#209B62"/>
</svg>
