<svg width="30" height="32" viewBox="0 0 30 32" fill="none" xmlns="http://www.w3.org/2000/svg">
<path d="M7.68902 31.3606C6.64735 31.3606 5.65778 31.1522 4.72027 30.7356C3.78277 30.3189 2.97028 29.7564 2.28277 29.0481C1.59527 28.3606 1.0484 27.5637 0.642149 26.6575C0.235897 25.7512 0.0223584 24.7929 0.00152436 23.7825C-0.0193086 22.772 0.173397 21.7408 0.579649 20.6887C0.985901 19.6366 1.66819 18.6314 2.62652 17.6731C3.16819 17.1106 4.07964 16.1835 5.3609 14.8918C6.64216 13.6002 8.04839 12.1783 9.57965 10.6262C11.1109 9.07411 12.6526 7.51163 14.2046 5.9387C15.7567 4.36578 17.0953 3.01683 18.2203 1.89183C19.0119 1.07932 19.8869 0.527246 20.8453 0.235578C21.8036 -0.0560902 22.7619 -0.0769232 23.7203 0.173078C24.6786 0.443913 25.5119 0.938699 26.2203 1.65745C26.9286 2.37621 27.4182 3.21474 27.689 4.17308C27.939 5.15225 27.9182 6.13141 27.6265 7.11058C27.3349 8.08975 26.7932 8.97516 26.0015 9.76683L11.0953 24.8606C10.6578 25.2981 10.2047 25.6418 9.7359 25.8918C9.26715 26.1418 8.79319 26.2981 8.31402 26.3606C7.83486 26.4022 7.37653 26.3502 6.93902 26.2043C6.50152 26.0585 6.11611 25.8189 5.78277 25.4856C5.22027 24.9022 4.93902 24.1106 4.93902 23.1106C4.93902 22.1106 5.4286 21.121 6.40777 20.1418L16.8765 9.54808C17.0849 9.31891 17.3401 9.20433 17.6421 9.20433C17.9442 9.20433 18.2099 9.31891 18.439 9.54808C18.6474 9.75641 18.7515 10.0168 18.7515 10.3293C18.7515 10.6418 18.6474 10.9022 18.439 11.1106L7.93902 21.7356C7.50152 22.1939 7.24632 22.621 7.1734 23.0168C7.10048 23.4127 7.15777 23.7147 7.34527 23.9231C7.42861 24.0064 7.53277 24.0637 7.65777 24.095C7.78278 24.1262 7.91819 24.1418 8.06402 24.1418C8.29319 24.1002 8.53277 24.0116 8.78277 23.8762C9.03278 23.7408 9.28277 23.5481 9.53277 23.2981L24.439 8.20433C24.9599 7.68349 25.314 7.12621 25.5015 6.53245C25.689 5.9387 25.6994 5.35016 25.5328 4.76683C25.3869 4.18349 25.0953 3.67308 24.6578 3.23558C24.2203 2.79808 23.7203 2.49599 23.1578 2.32933C22.5744 2.18349 21.9911 2.20433 21.4078 2.39183C20.8244 2.57933 20.2724 2.93349 19.7515 3.45433C18.6474 4.57933 17.3192 5.92828 15.7671 7.5012C14.2151 9.07413 12.6734 10.6366 11.1421 12.1887C9.61089 13.7408 8.20466 15.1627 6.9234 16.4543C5.64214 17.746 4.72028 18.6731 4.15777 19.2356C2.72027 20.7148 2.07444 22.2199 2.22027 23.7512C2.36611 25.2825 2.90777 26.5272 3.84527 27.4856C4.78278 28.4231 6.00673 28.97 7.51715 29.1262C9.02757 29.2825 10.5119 28.621 11.9703 27.1418L27.564 11.3606C27.7724 11.1314 28.0276 11.0168 28.3296 11.0168C28.6317 11.0168 28.8974 11.1314 29.1265 11.3606C29.3349 11.5689 29.439 11.8293 29.439 12.1418C29.439 12.4543 29.3349 12.7147 29.1265 12.9231L13.5328 28.7043C12.5953 29.6418 11.6265 30.3189 10.6265 30.7356C9.62652 31.1522 8.64736 31.3606 7.68902 31.3606Z" fill="#209B62"/>
</svg>
