<svg width="557" height="88" viewBox="0 0 557 88" fill="none" xmlns="http://www.w3.org/2000/svg">
<g filter="url(#filter0_i_1_2584)">
<path d="M58.5938 21.9727V29.2969H65.918V43.9453H58.5938V51.2695H51.2695V58.5938H21.9727V73.2422H14.6484V87.8906H0V65.918H7.32422V43.9453H14.6484V21.9727H21.9727V14.6484H51.2695V21.9727H58.5938ZM43.9453 43.9453V29.2969H29.2969V43.9453H43.9453ZM131.836 43.8721V80.4932H124.512V87.8174H80.5664V80.4932H73.2422V51.1963H80.5664V43.8721H87.8906V36.5479H124.512V43.8721H131.836ZM95.2148 58.5205H87.8906V73.1689H117.188V51.1963H95.2148V58.5205ZM168.457 29.2969V21.9727H183.105V29.2969H190.43V51.2695H175.781V43.9453H168.457V51.2695H161.133V65.918H153.809V87.8906H139.16V51.2695H146.484V14.6484H161.133V29.2969H168.457ZM234.375 14.6484V29.2969H249.023V43.9453H227.051V51.2695H219.727V65.918H227.051V73.2422H234.375V65.918H241.699V58.5938H256.348V73.2422H249.023V80.5664H241.699V87.8906H219.727V80.5664H212.402V73.2422H205.078V43.9453H197.754V29.2969H219.727V7.32422H227.051V0H241.699V14.6484H234.375ZM322.266 14.6484V21.9727H329.59V43.9453H314.941V29.2969H300.293V51.2695H307.617V65.918H292.969V58.5938H285.645V87.8906H270.996V51.2695H263.672V36.6211H285.645V21.9727H292.969V14.6484H300.293V7.32422H314.941V14.6484H322.266ZM395.508 43.8721V80.4932H388.184V87.8174H344.238V80.4932H336.914V51.1963H344.238V43.8721H351.562V36.5479H388.184V43.8721H395.508ZM358.887 58.5205H351.562V73.1689H380.859V51.1963H358.887V58.5205ZM417.48 14.6484H424.805V43.9453H432.129V58.5938H439.453V87.8906H424.805V65.918H417.48V51.2695H410.156V21.9727H402.832V7.32422H417.48V14.6484ZM468.75 65.918V73.2422H461.426V87.8906H446.777V65.918H454.102V58.5938H461.426V43.9453H476.074V65.918H468.75ZM476.074 36.6211V21.9727H490.723V36.6211H476.074ZM556.641 43.8721V80.4932H549.316V87.8174H505.371V80.4932H498.047V51.1963H505.371V43.8721H512.695V36.5479H549.316V43.8721H556.641ZM520.02 58.5205H512.695V73.1689H541.992V51.1963H520.02V58.5205Z" fill="#7EDD79"/>
</g>
<defs>
<filter id="filter0_i_1_2584" x="0" y="0" width="556.641" height="91.8906" filterUnits="userSpaceOnUse" color-interpolation-filters="sRGB">
<feFlood flood-opacity="0" result="BackgroundImageFix"/>
<feBlend mode="normal" in="SourceGraphic" in2="BackgroundImageFix" result="shape"/>
<feColorMatrix in="SourceAlpha" type="matrix" values="0 0 0 0 0 0 0 0 0 0 0 0 0 0 0 0 0 0 127 0" result="hardAlpha"/>
<feOffset dy="4"/>
<feGaussianBlur stdDeviation="2"/>
<feComposite in2="hardAlpha" operator="arithmetic" k2="-1" k3="1"/>
<feColorMatrix type="matrix" values="0 0 0 0 0.0366124 0 0 0 0 0.423077 0 0 0 0 0.184719 0 0 0 0.45 0"/>
<feBlend mode="normal" in2="shape" result="effect1_innerShadow_1_2584"/>
</filter>
</defs>
</svg>
