<svg width="499" height="88" viewBox="0 0 499 88" fill="none" xmlns="http://www.w3.org/2000/svg">
<g filter="url(#filter0_i_1_2590)">
<path d="M58.5938 21.9727V29.2969H65.918V43.9453H58.5938V51.2695H51.2695V58.5938H21.9727V73.2422H14.6484V87.8906H0V65.918H7.32422V43.9453H14.6484V21.9727H21.9727V14.6484H51.2695V21.9727H58.5938ZM43.9453 43.9453V29.2969H29.2969V43.9453H43.9453ZM102.539 29.2969V21.9727H117.188V29.2969H124.512V51.2695H109.863V43.9453H102.539V51.2695H95.2148V65.918H87.8906V87.8906H73.2422V51.2695H80.5664V14.6484H95.2148V29.2969H102.539ZM190.43 43.8721V80.4932H183.105V87.8174H139.16V80.4932H131.836V51.1963H139.16V43.8721H146.484V36.5479H183.105V43.8721H190.43ZM153.809 58.5205H146.484V73.1689H175.781V51.1963H153.809V58.5205ZM241.699 51.2695V73.2422H234.375V80.5664H227.051V87.8906H212.402V80.5664H205.078V73.2422H197.754V43.9453H212.402V65.918H227.051V43.9453H234.375V21.9727H249.023V51.2695H241.699ZM241.699 14.6484V0H256.348V14.6484H241.699ZM307.617 36.6211V58.5938H300.293V65.918H292.969V73.2422H314.941V87.8906H278.32V80.5664H270.996V73.2422H263.672V36.6211H270.996V29.2969H300.293V36.6211H307.617ZM285.645 58.5938V51.2695H292.969V43.9453H278.32V58.5938H285.645ZM344.238 51.2695V58.5938H336.914V65.918H344.238V73.2422H358.887V65.918H373.535V80.5664H366.211V87.8906H336.914V80.5664H329.59V73.2422H322.266V51.2695H329.59V43.9453H336.914V36.6211H373.535V51.2695H344.238ZM417.48 14.6484V29.2969H432.129V43.9453H410.156V51.2695H402.832V65.918H410.156V73.2422H417.48V65.918H424.805V58.5938H439.453V73.2422H432.129V80.5664H424.805V87.8906H402.832V80.5664H395.508V73.2422H388.184V43.9453H380.859V29.2969H402.832V7.32422H410.156V0H424.805V14.6484H417.48ZM490.723 21.9727V29.2969H498.047V43.9453H483.398V36.6211H468.75V43.9453H476.074V51.2695H483.398V58.5938H490.723V65.918H498.047V80.5664H490.723V87.8906H468.75V80.5664H454.102V73.2422H446.777V58.5938H461.426V65.918H468.75V58.5938H461.426V51.2695H454.102V29.2969H461.426V21.9727H468.75V14.6484H483.398V21.9727H490.723Z" fill="#7EDD79"/>
</g>
<defs>
<filter id="filter0_i_1_2590" x="0" y="0" width="498.047" height="91.8906" filterUnits="userSpaceOnUse" color-interpolation-filters="sRGB">
<feFlood flood-opacity="0" result="BackgroundImageFix"/>
<feBlend mode="normal" in="SourceGraphic" in2="BackgroundImageFix" result="shape"/>
<feColorMatrix in="SourceAlpha" type="matrix" values="0 0 0 0 0 0 0 0 0 0 0 0 0 0 0 0 0 0 127 0" result="hardAlpha"/>
<feOffset dy="4"/>
<feGaussianBlur stdDeviation="2"/>
<feComposite in2="hardAlpha" operator="arithmetic" k2="-1" k3="1"/>
<feColorMatrix type="matrix" values="0 0 0 0 0.0366124 0 0 0 0 0.423077 0 0 0 0 0.184719 0 0 0 0.45 0"/>
<feBlend mode="normal" in2="shape" result="effect1_innerShadow_1_2590"/>
</filter>
</defs>
</svg>
