<svg width="57" height="56" viewBox="0 0 57 56" fill="none" xmlns="http://www.w3.org/2000/svg">
<g clip-path="url(#clip0_1_2543)">
<g filter="url(#filter0_i_1_2543)">
<path d="M50.625 0C53.9387 5.22187e-07 56.625 2.63916 56.625 5.89474V50.1053C56.625 53.3609 53.9387 56 50.625 56H6.375C3.06129 56 0.375 53.3609 0.375 50.1053V5.89474C0.375001 2.63916 3.06129 7.71415e-08 6.375 0H50.625ZM17.2134 20.7892C16.6157 20.3374 15.7847 20.3577 15.2095 20.8366L13.7044 22.0887C12.9573 22.7114 12.9281 23.8386 13.6494 24.4885C18.0627 28.4609 29.7121 38.9537 33.5874 42.5159C34.1208 43.0061 34.9855 42.6279 34.9856 41.8935V34.2135L17.2134 20.7892ZM38.102 14C38.1502 14.1916 38.1987 14.479 38.1987 14.8462V41.8935C38.1987 42.1648 38.1663 42.4361 38.1181 42.6915C39.5159 42.0369 42.0065 40.8394 43.4685 40.1529C44.1752 39.8175 44.6249 39.0993 44.625 38.3173V18.3908C44.625 17.6085 44.1753 16.8898 43.4524 16.5545C42.0225 15.8839 39.6123 14.7345 38.102 14ZM13.6494 32.2498C12.9266 32.9044 12.9588 34.0218 13.6978 34.6445L15.208 35.9059C15.7864 36.3849 16.6219 36.4012 17.2163 35.9541L19.5938 34.166C18.3406 33.0164 16.9916 31.8023 15.5618 30.525C14.8388 31.1796 14.1796 31.7708 13.6494 32.2498ZM34.7761 14.2871C34.4869 13.968 33.9568 13.8727 33.5874 14.2238C31.7719 15.9003 28.2854 19.0615 24.6065 22.3665L29.9084 26.3579L34.9856 22.5262V14.8462C34.9856 14.7665 34.9694 14.7027 34.9534 14.639C34.9212 14.4953 34.8565 14.3829 34.7761 14.2871Z" fill="#7EDD79"/>
</g>
</g>
<defs>
<filter id="filter0_i_1_2543" x="0.375" y="0" width="56.25" height="58" filterUnits="userSpaceOnUse" color-interpolation-filters="sRGB">
<feFlood flood-opacity="0" result="BackgroundImageFix"/>
<feBlend mode="normal" in="SourceGraphic" in2="BackgroundImageFix" result="shape"/>
<feColorMatrix in="SourceAlpha" type="matrix" values="0 0 0 0 0 0 0 0 0 0 0 0 0 0 0 0 0 0 127 0" result="hardAlpha"/>
<feOffset dy="2"/>
<feGaussianBlur stdDeviation="2.45"/>
<feComposite in2="hardAlpha" operator="arithmetic" k2="-1" k3="1"/>
<feColorMatrix type="matrix" values="0 0 0 0 0.117647 0 0 0 0 0.576471 0 0 0 0 0.454902 0 0 0 0.4 0"/>
<feBlend mode="normal" in2="shape" result="effect1_innerShadow_1_2543"/>
</filter>
<clipPath id="clip0_1_2543">
<rect width="57" height="56" fill="white"/>
</clipPath>
</defs>
</svg>
